<svg viewBox = "0 0 381 354" width="381" height="354" xmlns="http://www.w3.org/2000/svg"><g transform="matrix(1 0 0 1 190.5 177)"  ><g style=""   ><g transform="matrix(1 0 0 1 159.5 -63.63)"  ><path style="stroke: rgb(0,0,0); stroke-width: 1.5; stroke-dasharray: none; stroke-linecap: butt; stroke-dashoffset: 0; stroke-linejoin: round; stroke-miterlimit: 4; fill: none; fill-rule: nonzero; opacity: 1;"  transform=" translate(-350, -113.37)" d="M 363.072 128.322 L 319.752 174.036 L 336.928 98.416 L 380.248 52.702 L 363.072 128.322 Z" stroke-linecap="round" /></g><g transform="matrix(1 0 0 1 99.97 -23.75)"  ><path style="stroke: rgb(0,0,0); stroke-width: 1.5; stroke-dasharray: none; stroke-linecap: butt; stroke-dashoffset: 0; stroke-linejoin: round; stroke-miterlimit: 4; fill: none; fill-rule: nonzero; opacity: 1;"  transform=" translate(-290.47, -153.25)" d="M 301.352 130.754 L 291.13 140.14 C 294.716 140.899 298.2 142.085 301.504 143.674 C 302.904 144.27 304.19 145.106 305.304 146.144 C 306.862 147.93 298.504 145.384 294.398 144.928 L 294.36 144.928 C 295.19 145.365 295.946 145.929 296.602 146.6 C 297.95 148.142 287.64 144.652 286.722 145.308 C 290.674 147.094 296.792 150.476 298.274 153.108 C 300.022 156.262 291.054 149.99 285.24 149.8 C 288.926 151.51 292.954 153.906 294.398 156.566 C 296.374 160.166 289.23 153.566 280.718 153.298 L 280.68 153.298 C 288.812 158.238 292.612 162.298 281.06 157.288 C 278.942 156.341 276.682 155.75 274.372 155.54 L 251.154 176.772 L 319.706 174.112 L 329.776 129.728 L 301.352 130.754 Z" stroke-linecap="round" /></g><g transform="matrix(1 0 0 1 -16.71 -138.76)"  ><path style="stroke: rgb(0,0,0); stroke-width: 1.5; stroke-dasharray: none; stroke-linecap: butt; stroke-dashoffset: 0; stroke-linejoin: round; stroke-miterlimit: 4; fill: none; fill-rule: nonzero; opacity: 1;"  transform=" translate(-173.79, -38.24)" d="M 206.77 39.63 C 206.932 38.7094 206.76 37.7612 206.286 36.9552 C 205.814 36.1492 205.068 35.5378 204.186 35.23 C 204.754 34.705 205.156 34.0254 205.344 33.2746 C 205.532 32.524 205.496 31.735 205.24 31.0044 C 204.986 30.274 204.522 29.6338 203.91 29.1626 C 203.296 28.6914 202.558 28.4096 201.786 28.352 C 202.1 27.6822 202.224 26.9382 202.14 26.2028 C 202.058 25.4674 201.772 24.7694 201.316 24.1866 C 200.86 23.6038 200.252 23.1588 199.558 22.9014 C 198.864 22.6438 198.112 22.5838 197.386 22.728 C 197.48 21.9906 197.364 21.2416 197.052 20.5666 C 196.74 19.8916 196.246 19.3176 195.624 18.9098 C 195.002 18.502 194.278 18.277 193.536 18.26 C 192.792 18.243 192.06 18.435 191.42 18.814 C 191.284 18.0566 190.934 17.3542 190.409 16.7912 C 189.884 16.2282 189.208 15.8286 188.462 15.64 C 187.716 15.4514 186.932 15.4822 186.203 15.7284 C 185.474 15.9746 184.831 16.4258 184.352 17.028 C 183.99 16.3026 183.424 15.6984 182.723 15.2892 C 182.023 14.88 181.219 14.6836 180.409 14.7238 C 179.599 14.7642 178.818 15.0394 178.162 15.5162 C 177.506 15.9928 177.003 16.6502 176.714 17.408 C 176.255 16.924 175.681 16.5632 175.046 16.359 C 174.411 16.155 173.734 16.1138 173.079 16.2398 C 172.424 16.3658 171.811 16.6544 171.297 17.0796 C 170.782 17.5046 170.383 18.0522 170.136 18.672 C 170.201 17.7218 169.994 16.7728 169.538 15.9366 C 169.082 15.1002 168.397 14.4116 167.563 13.9514 C 166.729 13.4914 165.782 13.279 164.831 13.3392 C 163.881 13.3996 162.967 13.7302 162.198 14.292 C 161.777 13.3202 161.069 12.5 160.169 11.9412 C 159.27 11.3826 158.221 11.112 157.163 11.1656 C 156.105 11.2194 155.089 11.5948 154.25 12.2418 C 153.411 12.8888 152.79 13.7764 152.47 14.786 C 151.6 14.26 150.59 14.013 149.576 14.0784 C 148.561 14.1438 147.591 14.5184 146.796 15.1516 C 146.001 15.785 145.419 16.6468 145.129 17.621 C 144.839 18.595 144.854 19.6348 145.172 20.6 C 144.155 20.7152 143.197 21.1412 142.431 21.8202 C 141.664 22.499 141.125 23.3976 140.888 24.3938 C 140.65 25.3898 140.726 26.4348 141.104 27.3866 C 141.482 28.3382 142.144 29.1502 143 29.712 C 142.198 30.3612 141.618 31.243 141.339 32.236 C 141.06 33.229 141.096 34.2842 141.442 35.2558 C 141.788 36.2276 142.427 37.0678 143.271 37.6608 C 144.115 38.2538 145.123 38.57 146.154 38.566 C 145.947 39.5568 146.047 40.5872 146.442 41.5192 C 146.836 42.4514 147.506 43.2408 148.361 43.782 C 149.216 44.3234 150.217 44.5906 151.228 44.548 C 152.239 44.5054 153.213 44.1552 154.02 43.544 C 154.34 44.3638 154.877 45.0804 155.574 45.617 C 156.271 46.1534 157.102 46.4892 157.976 46.588 C 157.815 47.1554 157.783 47.7516 157.881 48.333 C 157.979 48.9146 158.205 49.467 158.543 49.9502 C 158.881 50.4336 159.322 50.8358 159.835 51.1278 C 160.347 51.4196 160.918 51.594 161.506 51.638 C 161.188 52.31 161.065 53.0574 161.151 53.7958 C 161.237 54.534 161.527 55.2336 161.99 55.815 C 162.453 56.3966 163.069 56.8368 163.77 57.0858 C 164.47 57.3348 165.226 57.3828 165.952 57.224 C 165.865 57.9628 165.986 58.7114 166.303 59.3844 C 166.62 60.0576 167.119 60.6284 167.744 61.032 C 168.369 61.4358 169.094 61.656 169.838 61.6682 C 170.582 61.6802 171.314 61.4834 171.952 61.1 C 172.088 61.8582 172.44 62.5608 172.967 63.123 C 173.493 63.6852 174.171 64.0828 174.919 64.2676 C 175.666 64.4526 176.452 64.4168 177.18 64.165 C 177.907 63.913 178.547 63.4556 179.02 62.848 C 179.499 63.5352 180.12 64.1112 180.842 64.5374 C 181.563 64.9634 182.367 65.2298 183.2 65.318 C 184.473 63.0184 185.335 60.5142 185.746 57.918 C 186.169 55.2746 185.675 52.566 184.346 50.242 C 178.684 48.38 181.23 41.73 185.068 44.314 C 186.892 45.568 187.584 45.488 187.728 44.276 C 187.739 43.9258 187.844 43.5852 188.033 43.29 C 188.221 42.9948 188.487 42.7564 188.8 42.6 C 189.138 43.3128 189.679 43.9096 190.355 44.3156 C 191.03 44.7218 191.812 44.9188 192.6 44.8824 C 193.388 44.8458 194.148 44.5772 194.782 44.1102 C 195.418 43.6434 195.902 42.999 196.172 42.258 C 196.54 42.6468 196.982 42.9578 197.472 43.1726 C 197.962 43.3876 198.49 43.5018 199.024 43.509 C 199.56 43.516 200.09 43.4158 200.586 43.2138 C 201.082 43.012 201.532 42.713 201.91 42.334 C 202.85 44.5488 203.564 46.8534 204.038 49.212 C 204.608 48.8906 205.092 48.434 205.444 47.8822 C 205.798 47.3304 206.01 46.7004 206.062 46.0476 C 206.114 45.3946 206.006 44.7388 205.746 44.1378 C 205.486 43.5366 205.082 43.0086 204.57 42.6 C 205.142 42.3098 205.638 41.8904 206.02 41.3748 C 206.402 40.8594 206.66 40.262 206.77 39.63 Z" stroke-linecap="round" /></g><g transform="matrix(1 0 0 1 69.53 -123.39)"  ><path style="stroke: rgb(0,0,0); stroke-width: 1.5; stroke-dasharray: none; stroke-linecap: round; stroke-dashoffset: 0; stroke-linejoin: round; stroke-miterlimit: 4; fill: none; fill-rule: nonzero; opacity: 1;"  transform=" translate(-260.03, -53.61)" d="M 203.312 63.152 L 316.742 44.076" stroke-linecap="round" /></g><g transform="matrix(1 0 0 1 -90.66 -96.48)"  ><path style="stroke: rgb(0,0,0); stroke-width: 1.5; stroke-dasharray: none; stroke-linecap: round; stroke-dashoffset: 0; stroke-linejoin: round; stroke-miterlimit: 4; fill: none; fill-rule: nonzero; opacity: 1;"  transform=" translate(-99.84, -80.52)" d="M 17.188 94.388 L 182.488 66.648" stroke-linecap="round" /></g><g transform="matrix(1 0 0 1 18.27 -80.71)"  ><path style="stroke: rgb(0,0,0); stroke-width: 1.5; stroke-dasharray: none; stroke-linecap: round; stroke-dashoffset: 0; stroke-linejoin: round; stroke-miterlimit: 4; fill: none; fill-rule: nonzero; opacity: 1;"  transform=" translate(-208.76, -96.29)" d="M 191.76 81.012 L 225.77 111.564" stroke-linecap="round" /></g><g transform="matrix(1 0 0 1 31.46 -62.48)"  ><path style="stroke: rgb(0,0,0); stroke-width: 1.5; stroke-dasharray: none; stroke-linecap: round; stroke-dashoffset: 0; stroke-linejoin: round; stroke-miterlimit: 4; fill: none; fill-rule: nonzero; opacity: 1;"  transform=" translate(-221.96, -114.52)" d="M 225.922 114.908 C 226.378 113.198 226.38 111.978 225.77 111.564 C 225.202 111.18 224.17 111.52 222.882 112.438 C 220.952 113.962 219.206 115.707 217.682 117.638" stroke-linecap="round" /></g><g transform="matrix(1 0 0 1 -146.35 -19.97)"  ><path style="stroke: rgb(0,0,0); stroke-width: 1.5; stroke-dasharray: none; stroke-linecap: round; stroke-dashoffset: 0; stroke-linejoin: round; stroke-miterlimit: 4; fill: none; fill-rule: nonzero; opacity: 1;"  transform=" translate(-44.15, -157.03)" d="M 83.8 159.938 C 70.956 149.716 69.892 149.412 59.708 138.278 C 38.2 141.318 14.528 148.5 4.49597 153.25 C 19.8086 159.036 36.209 161.371 52.528 160.09 L 69.97 175.784" stroke-linecap="round" /></g><g transform="matrix(1 0 0 1 7.81 -79.84)"  ><path style="stroke: rgb(0,0,0); stroke-width: 1.5; stroke-dasharray: none; stroke-linecap: round; stroke-dashoffset: 0; stroke-linejoin: round; stroke-miterlimit: 4; fill: none; fill-rule: nonzero; opacity: 1;"  transform=" translate(-198.31, -97.16)" d="M 180.398 81.088 L 216.232 113.236" stroke-linecap="round" /></g><g transform="matrix(1 0 0 1 -3.26 -46.61)"  ><path style="stroke: rgb(0,0,0); stroke-width: 1.5; stroke-dasharray: none; stroke-linecap: round; stroke-dashoffset: 0; stroke-linejoin: round; stroke-miterlimit: 4; fill: none; fill-rule: nonzero; opacity: 1;"  transform=" translate(-187.24, -130.39)" d="M 198.828 139.114 L 175.648 119.468 L 189.686 141.312" stroke-linecap="round" /></g><g transform="matrix(1 0 0 1 99.62 -28.36)"  ><path style="stroke: rgb(0,0,0); stroke-width: 1.5; stroke-dasharray: none; stroke-linecap: round; stroke-dashoffset: 0; stroke-linejoin: round; stroke-miterlimit: 4; fill: none; fill-rule: nonzero; opacity: 1;"  transform=" translate(-290.12, -148.64)" d="M 281.554 143.4 C 282.954 143.704 295.774 148.184 298.464 152.976 C 300.264 156.166 291.168 149.822 285.278 149.632" stroke-linecap="round" /></g><g transform="matrix(1 0 0 1 97.09 -24.42)"  ><path style="stroke: rgb(0,0,0); stroke-width: 1.5; stroke-dasharray: none; stroke-linecap: round; stroke-dashoffset: 0; stroke-linejoin: round; stroke-miterlimit: 4; fill: none; fill-rule: nonzero; opacity: 1;"  transform=" translate(-287.59, -152.58)" d="M 280.3 147.588 C 283.872 148.88 292.338 152.456 294.55 156.48 C 296.55 160.132 289.35 153.44 280.718 153.174" stroke-linecap="round" /></g><g transform="matrix(1 0 0 1 53.14 -29.79)"  ><path style="stroke: rgb(0,0,0); stroke-width: 1.5; stroke-dasharray: none; stroke-linecap: round; stroke-dashoffset: 0; stroke-linejoin: round; stroke-miterlimit: 4; fill: none; fill-rule: nonzero; opacity: 1;"  transform=" translate(-243.64, -147.21)" d="M 279.312 152.376 C 288.356 157.658 293.34 162.548 281.06 157.24 C 274.716 154.498 228.46 153.098 228.46 153.098 C 224.4 152.678 220.524 151.196 217.22 148.8 L 198.904 134.892" stroke-linecap="round" /></g><g transform="matrix(1 0 0 1 64.67 -46.49)"  ><path style="stroke: rgb(0,0,0); stroke-width: 1.5; stroke-dasharray: none; stroke-linecap: round; stroke-dashoffset: 0; stroke-linejoin: round; stroke-miterlimit: 4; fill: none; fill-rule: nonzero; opacity: 1;"  transform=" translate(-255.17, -130.51)" d="M 213.344 114.11 L 231.964 130.64 C 231.964 130.64 278.628 139.38 282.2 140.4 C 285.772 141.42 294.326 143.588 296.83 146.442 C 298.162 147.96 290.83 145.34 286.38 145.112" stroke-linecap="round" /></g><g transform="matrix(1 0 0 1 17.05 -50.83)"  ><path style="stroke: rgb(0,0,0); stroke-width: 1.5; stroke-dasharray: none; stroke-linecap: round; stroke-dashoffset: 0; stroke-linejoin: round; stroke-miterlimit: 4; fill: none; fill-rule: nonzero; opacity: 1;"  transform=" translate(-207.55, -126.17)" d="M 216.384 116.58 C 216.84 114.87 216.842 113.65 216.232 113.236 C 215.664 112.852 214.632 113.194 213.344 114.11 C 208.086 117.852 200.272 129.452 198.638 135.808 C 198.238 137.368 198.31 138.774 198.828 139.114 C 199.428 139.514 201.146 139.038 202.428 137.594" stroke-linecap="round" /></g><g transform="matrix(1 0 0 1 -36.97 -29.45)"  ><path style="stroke: rgb(0,0,0); stroke-width: 1.5; stroke-dasharray: none; stroke-linecap: round; stroke-dashoffset: 0; stroke-linejoin: round; stroke-miterlimit: 4; fill: none; fill-rule: nonzero; opacity: 1;"  transform=" translate(-153.53, -147.55)" d="M 140.764 151.502 C 149.938 151.888 158.963 149.082 166.3 143.56" stroke-linecap="round" /></g><g transform="matrix(1 0 0 1 0.9 -38.78)"  ><path style="stroke: rgb(0,0,0); stroke-width: 1.5; stroke-dasharray: none; stroke-linecap: round; stroke-dashoffset: 0; stroke-linejoin: round; stroke-miterlimit: 4; fill: none; fill-rule: nonzero; opacity: 1;"  transform=" translate(-191.4, -138.22)" d="M 189.366 141.888 L 193.432 134.554" stroke-linecap="round" /></g><g transform="matrix(1 0 0 1 -6.07 -100.67)"  ><path style="stroke: rgb(0,0,0); stroke-width: 1.5; stroke-dasharray: none; stroke-linecap: round; stroke-dashoffset: 0; stroke-linejoin: round; stroke-miterlimit: 4; fill: none; fill-rule: nonzero; opacity: 1;"  transform=" translate(-184.43, -76.33)" d="M 191.152 77.4 C 188.644 81.048 184.046 79.452 177.7 73.334" stroke-linecap="round" /></g><g transform="matrix(1 0 0 1 -26.78 14.33)"  ><path style="stroke: rgb(0,0,0); stroke-width: 1.5; stroke-dasharray: none; stroke-linecap: round; stroke-dashoffset: 0; stroke-linejoin: round; stroke-miterlimit: 4; fill: none; fill-rule: nonzero; opacity: 1;"  transform=" translate(-163.72, -191.33)" d="M 150.448 197.714 L 179.98 164.84 L 147.452 217.812" stroke-linecap="round" /></g><g transform="matrix(1 0 0 1 -62.55 32.1)"  ><path style="stroke: rgb(0,0,0); stroke-width: 1.5; stroke-dasharray: none; stroke-linecap: round; stroke-dashoffset: 0; stroke-linejoin: round; stroke-miterlimit: 4; fill: none; fill-rule: nonzero; opacity: 1;"  transform=" translate(-127.95, -209.1)" d="M 103.98 216.558 C 106.125 218.484 108.628 219.97 111.347 220.928 C 114.066 221.886 116.948 222.3 119.826 222.144 C 122.705 221.99 125.525 221.268 128.125 220.024 C 130.726 218.778 133.055 217.032 134.98 214.886 L 150.44 197.714 L 144.328 238.514 L 119.096 266.634 C 125.427 277.75 135.185 286.52 146.912 291.634 L 173.626 261.88 C 177.581 257.482 180.376 252.166 181.758 246.414 C 187.574 222.014 185.596 178.926 189.358 141.876 C 174.234 139.064 168.648 135.644 157.134 126.562 C 149.694 132 133.088 136.036 116.4 177.532 L 91.516 155.15 C 80.036 160.991 71.1374 170.892 66.55 182.928 L 103.98 216.558 Z" stroke-linecap="round" /></g><g transform="matrix(1 0 0 1 1.03 -110.57)"  ><path style="stroke: rgb(0,0,0); stroke-width: 1.5; stroke-dasharray: none; stroke-linecap: round; stroke-dashoffset: 0; stroke-linejoin: round; stroke-miterlimit: 4; fill: none; fill-rule: nonzero; opacity: 1;"  transform=" translate(-191.53, -66.43)" d="M 193 65.638 C 191.994 65.2628 191.012 64.826 190.06 64.33 L 191.99 68.53" stroke-linecap="round" /></g><g transform="matrix(1 0 0 1 -9.55 -92.53)"  ><path style="stroke: rgb(0,0,0); stroke-width: 1.5; stroke-dasharray: none; stroke-linecap: round; stroke-dashoffset: 0; stroke-linejoin: round; stroke-miterlimit: 4; fill: none; fill-rule: nonzero; opacity: 1;"  transform=" translate(-180.95, -84.47)" d="M 157.132 126.536 C 158.749 121.455 159.844 116.222 160.4 110.918 C 161.368 102.758 163.736 94.8268 167.4 87.472 C 170.98 79.95 179.2 73.014 183.4 65.014 C 184.659 62.8162 185.458 60.3858 185.75 57.87 C 186.174 55.2266 185.68 52.5178 184.35 50.194 C 178.688 48.332 181.246 41.666 185.072 44.266 C 186.902 45.512 187.618 45.444 187.732 44.228 C 187.835 43.5886 187.963 42.9802 188.114 42.404 M 194.572 93.818 C 191.772 85.738 189.448 73.384 192.99 65.638 C 207.378 70.916 206.16 52.262 201.944 42.404 L 194.572 93.818 Z" stroke-linecap="round" /></g><g transform="matrix(1 0 0 1 -48.9 92.59)"  ><path style="stroke: rgb(0,0,0); stroke-width: 1.5; stroke-dasharray: none; stroke-linecap: round; stroke-dashoffset: 0; stroke-linejoin: round; stroke-miterlimit: 4; fill: none; fill-rule: nonzero; opacity: 1;"  transform=" translate(-141.6, -269.59)" d="M 127.502 257.294 C 134.375 268.002 144.157 276.53 155.702 281.88" stroke-linecap="round" /></g><g transform="matrix(1 0 0 1 -103.24 -0.61)"  ><path style="stroke: rgb(0,0,0); stroke-width: 1.5; stroke-dasharray: none; stroke-linecap: round; stroke-dashoffset: 0; stroke-linejoin: round; stroke-miterlimit: 4; fill: none; fill-rule: nonzero; opacity: 1;"  transform=" translate(-87.26, -176.39)" d="M 74.834 190.262 C 81.218 178.662 89.198 169.134 99.686 162.522" stroke-linecap="round" /></g><g transform="matrix(1 0 0 1 -70.96 136.29)"  ><path style="stroke: rgb(0,0,0); stroke-width: 1.5; stroke-dasharray: none; stroke-linecap: round; stroke-dashoffset: 0; stroke-linejoin: round; stroke-miterlimit: 4; fill: none; fill-rule: nonzero; opacity: 1;"  transform=" translate(-119.54, -313.29)" d="M 123.626 273.52 C 115.598 283.32 108.416 291.012 100.598 299.17 C 98.508 311.52 99.496 339.868 103.486 353.054 C 114.086 335.422 117.926 324.212 123.286 306.054 L 139.55 287.966" stroke-linecap="round" /></g><g transform="matrix(1 0 0 1 -130.6 -23.88)"  ><path style="stroke: rgb(0,0,0); stroke-width: 1.5; stroke-dasharray: none; stroke-linecap: round; stroke-dashoffset: 0; stroke-linejoin: round; stroke-miterlimit: 4; fill: none; fill-rule: nonzero; opacity: 1;"  transform=" translate(-59.9, -153.12)" d="M 53.364 160.85 C 56.9512 155.09 61.3542 149.881 66.436 145.384" stroke-linecap="round" /></g><g transform="matrix(1 0 0 1 73.83 -47.48)"  ><path style="stroke: rgb(0,0,0); stroke-width: 1.5; stroke-dasharray: none; stroke-linecap: round; stroke-dashoffset: 0; stroke-linejoin: round; stroke-miterlimit: 4; fill: none; fill-rule: nonzero; opacity: 1;"  transform=" translate(-264.33, -129.52)" d="M 294.55 144.776 C 298.692 145.194 307.12 147.776 305.57 145.992 C 304.444 144.943 303.146 144.094 301.732 143.484 C 296.372 140.864 291.244 140.026 285.544 138.468 L 241.344 127.752 L 222.9 112.42" stroke-linecap="round" /></g><g transform="matrix(1 0 0 1 -70.83 -1.94)"  ><path style="stroke: rgb(0,0,0); stroke-width: 1.5; stroke-dasharray: none; stroke-linecap: round; stroke-dashoffset: 0; stroke-linejoin: round; stroke-miterlimit: 4; fill: none; fill-rule: nonzero; opacity: 1;"  transform=" translate(-119.67, -175.06)" d="M 153.19 150.02 L 119.104 200.104 L 86.158 173.998" stroke-linecap="round" /></g><g transform="matrix(1 0 0 1 48.08 -139.73)"  ><path style="stroke: rgb(0,0,0); stroke-width: 1.5; stroke-dasharray: none; stroke-linecap: round; stroke-dashoffset: 0; stroke-linejoin: round; stroke-miterlimit: 4; fill: none; fill-rule: nonzero; opacity: 1;"  transform=" translate(-238.58, -37.27)" d="M 246.366 35.982 C 246.622 37.5226 246.414 39.1044 245.77 40.5274 C 245.128 41.9502 244.076 43.1504 242.75 43.976 C 241.426 44.8016 239.884 45.2156 238.324 45.1656 C 236.762 45.1156 235.252 44.604 233.982 43.6952 C 232.712 42.7866 231.74 41.5216 231.188 40.0604 C 230.638 38.5994 230.532 37.0076 230.886 35.4864 C 231.238 33.9654 232.036 32.5832 233.174 31.5148 C 234.314 30.4464 235.744 29.7396 237.284 29.484 C 239.35 29.1424 241.468 29.635 243.17 30.8534 C 244.872 32.0718 246.022 33.9164 246.366 35.982 Z" stroke-linecap="round" /></g><g transform="matrix(1 0 0 1 69.58 -143.3)"  ><path style="stroke: rgb(0,0,0); stroke-width: 1.5; stroke-dasharray: none; stroke-linecap: round; stroke-dashoffset: 0; stroke-linejoin: round; stroke-miterlimit: 4; fill: none; fill-rule: nonzero; opacity: 1;"  transform=" translate(-260.08, -33.7)" d="M 267.874 32.41 C 268.13 33.9506 267.922 35.5324 267.278 36.9554 C 266.636 38.3782 265.584 39.5784 264.258 40.404 C 262.934 41.2296 261.392 41.6436 259.832 41.5936 C 258.27 41.5436 256.76 41.0318 255.49 40.1232 C 254.22 39.2146 253.248 37.9496 252.696 36.4884 C 252.146 35.0274 252.04 33.4356 252.394 31.9144 C 252.746 30.3934 253.544 29.0112 254.682 27.9428 C 255.822 26.8744 257.252 26.1676 258.792 25.912 C 260.858 25.5704 262.974 26.0628 264.678 27.2814 C 266.38 28.4998 267.53 30.3444 267.874 32.41 Z" stroke-linecap="round" /></g><g transform="matrix(1 0 0 1 91.47 -146.95)"  ><path style="stroke: rgb(0,0,0); stroke-width: 1.5; stroke-dasharray: none; stroke-linecap: round; stroke-dashoffset: 0; stroke-linejoin: round; stroke-miterlimit: 4; fill: none; fill-rule: nonzero; opacity: 1;"  transform=" translate(-281.97, -30.05)" d="M 289.762 28.762 C 290.018 30.3026 289.81 31.8844 289.166 33.3074 C 288.524 34.7302 287.472 35.9304 286.146 36.756 C 284.822 37.5816 283.28 37.9954 281.72 37.9456 C 280.158 37.8956 278.648 37.3838 277.378 36.4752 C 276.108 35.5664 275.136 34.3016 274.584 32.8404 C 274.034 31.3794 273.928 29.7876 274.282 28.2664 C 274.634 26.7452 275.432 25.3632 276.57 24.2948 C 277.71 23.2264 279.14 22.5196 280.68 22.264 C 282.746 21.9218 284.864 22.4142 286.566 23.6326 C 288.27 24.8512 289.42 26.6962 289.762 28.762 Z" stroke-linecap="round" /></g><g transform="matrix(1 0 0 1 -134.17 -165.83)"  ><path style="stroke: rgb(0,0,0); stroke-width: 1.5; stroke-dasharray: none; stroke-linecap: round; stroke-dashoffset: 0; stroke-linejoin: round; stroke-miterlimit: 4; fill: none; fill-rule: nonzero; opacity: 1;"  transform=" translate(-56.33, -11.17)" d="M 63.5859 0.945999 L 49.0699 21.39" stroke-linecap="round" /></g><g transform="matrix(1 0 0 1 -134.15 -165.83)"  ><path style="stroke: rgb(0,0,0); stroke-width: 1.5; stroke-dasharray: none; stroke-linecap: round; stroke-dashoffset: 0; stroke-linejoin: round; stroke-miterlimit: 4; fill: none; fill-rule: nonzero; opacity: 1;"  transform=" translate(-56.35, -11.17)" d="M 66.55 18.426 L 46.144 3.91" stroke-linecap="round" /></g><g transform="matrix(1 0 0 1 -163.07 57.5)"  ><path style="stroke: rgb(0,0,0); stroke-width: 1.5; stroke-dasharray: none; stroke-linecap: round; stroke-dashoffset: 0; stroke-linejoin: round; stroke-miterlimit: 4; fill: none; fill-rule: nonzero; opacity: 1;"  transform=" translate(-27.43, -234.5)" d="M 5.94 221.308 L 5.484 221.46 L 19.506 233.886 L 1 254.216 L 10.918 263.07 L 29.424 242.702 L 43.406 255.13 L 53.858 205.92 L 5.94 221.308 Z" stroke-linecap="round" /></g><g transform="matrix(1 0 0 1 45.45 59.2)"  ><path style="stroke: rgb(0,0,0); stroke-width: 1.5; stroke-dasharray: none; stroke-linecap: round; stroke-dashoffset: 0; stroke-linejoin: round; stroke-miterlimit: 4; fill: none; fill-rule: nonzero; opacity: 1;"  transform=" translate(-235.95, -236.2)" d="M 250.66 249.352 L 221.248 240.232 L 245.986 223.056" stroke-linecap="round" /></g><g transform="matrix(1 0 0 1 94.26 55.31)"  ><path style="stroke: rgb(0,0,0); stroke-width: 1.5; stroke-dasharray: none; stroke-linecap: round; stroke-dashoffset: 0; stroke-linejoin: round; stroke-miterlimit: 4; fill: none; fill-rule: nonzero; opacity: 1;"  transform=" translate(-284.76, -232.31)" d="M 274.828 245.476 L 299.376 227.312 L 270.154 219.142" stroke-linecap="round" /></g><g transform="matrix(1 0 0 1 69.75 57.49)"  ><path style="stroke: rgb(0,0,0); stroke-width: 1.5; stroke-dasharray: none; stroke-linecap: round; stroke-dashoffset: 0; stroke-linejoin: round; stroke-miterlimit: 4; fill: none; fill-rule: nonzero; opacity: 1;"  transform=" translate(-260.25, -234.49)" d="M 265.632 208.312 L 254.878 260.676" stroke-linecap="round" /></g><g transform="matrix(1 0 0 1 -126.55 56.33)"  ><path style="stroke: rgb(0,0,0); stroke-width: 1.5; stroke-dasharray: none; stroke-linecap: round; stroke-dashoffset: 0; stroke-linejoin: round; stroke-miterlimit: 4; fill: none; fill-rule: nonzero; opacity: 1;"  transform=" translate(-63.95, -233.33)" d="M 27.723 159.234 L 47.436 280.778 C 48.1404 284.924 49.6548 288.89 51.8926 292.448 C 54.1306 296.008 57.048 299.092 60.4782 301.524 C 63.9084 303.954 67.7842 305.686 71.884 306.62 C 75.984 307.552 80.2274 307.668 84.372 306.96 L 100.177 304.302" stroke-linecap="round" /></g><g transform="matrix(1 0 0 1 47.86 51.65)"  ><path style="stroke: rgb(0,0,0); stroke-width: 1.5; stroke-dasharray: none; stroke-linecap: round; stroke-dashoffset: 0; stroke-linejoin: round; stroke-miterlimit: 4; fill: none; fill-rule: nonzero; opacity: 1;"  transform=" translate(-238.36, -228.65)" d="M 335.174 157.909 L 346.914 230.276 C 347.622 234.42 347.506 238.664 346.574 242.764 C 345.64 246.864 343.908 250.74 341.478 254.17 C 339.046 257.6 335.962 260.518 332.402 262.756 C 328.842 264.994 324.878 266.508 320.732 267.212 L 129.354 299.396" stroke-linecap="round" /></g><g transform="matrix(1 0 0 1 -112.09 -88.16)"  ><path style="stroke: rgb(0,0,0); stroke-width: 1.5; stroke-dasharray: none; stroke-linecap: round; stroke-dashoffset: 0; stroke-linejoin: round; stroke-miterlimit: 4; fill: none; fill-rule: nonzero; opacity: 1;"  transform=" translate(-78.41, -88.84)" d="M 141.49 31.9532 L 41.964 48.674 C 37.8188 49.3786 33.853 50.893 30.2934 53.1308 C 26.7338 55.3686 23.6502 58.286 21.2186 61.7164 C 18.7872 65.1466 17.0554 69.0224 16.1226 73.1222 C 15.1898 77.222 15.074 81.4656 15.782 85.61 L 25.5308 145.718" stroke-linecap="round" /></g><g transform="matrix(1 0 0 1 73.34 -108.93)"  ><path style="stroke: rgb(0,0,0); stroke-width: 1.5; stroke-dasharray: none; stroke-linecap: round; stroke-dashoffset: 0; stroke-linejoin: round; stroke-miterlimit: 4; fill: none; fill-rule: nonzero; opacity: 1;"  transform=" translate(-263.84, -68.07)" d="M 197.422 22.5562 L 278.324 8.964 C 282.468 8.256 286.712 8.37179 290.812 9.30459 C 294.912 10.2374 298.788 11.9692 302.218 14.4006 C 305.648 16.8322 308.566 19.9158 310.804 23.4754 C 313.042 27.035 314.556 31.0008 315.26 35.146 L 330.262 127.631" stroke-linecap="round" /></g><g transform="matrix(1 0 0 1 -74.74 121.58)"  ><path style="stroke: rgb(0,0,0); stroke-width: 1.5; stroke-dasharray: none; stroke-linecap: round; stroke-dashoffset: 0; stroke-linejoin: round; stroke-miterlimit: 4; fill: none; fill-rule: nonzero; opacity: 1;"  transform=" translate(-115.76, -298.58)" d="M 108.236 291.114 C 112.422 296.864 117.502 301.906 123.284 306.048" stroke-linecap="round" /></g></g></g></svg>